{
  "accessors": [
    {
      "bufferView": 2,
      "componentType": 5126,
      "count": 1551,
      "max": [
        99.10441589355469,
        99.10441589355469,
        5.3381500244140625
      ],
      "min": [
        -99.10441589355469,
        -99.10441589355469,
        -5.3381500244140625
      ],
      "type": "VEC3"
    },
    {
      "bufferView": 2,
      "byteOffset": 18612,
      "componentType": 5126,
      "count": 1551,
      "max": [
        1.0,
        1.0,
        1.0
      ],
      "min": [
        -1.0,
        -1.0,
        -1.0
      ],
      "type": "VEC3"
    },
    {
      "bufferView": 3,
      "componentType": 5126,
      "count": 1551,
      "max": [
        0.9988884329795837,
        0.9988884925842285,
        0.9997795820236206,
        1.0
      ],
      "min": [
        -0.9988882541656494,
        -0.9997488260269165,
        -0.999249279499054,
        1.0
      ],
      "type": "VEC4"
    },
    {
      "bufferView": 1,
      "componentType": 5126,
      "count": 1551,
      "max": [
        0.9304258823394775,
        0.6741566061973572
      ],
      "min": [
        0.004250792786478996,
        0.006972890812903643
      ],
      "type": "VEC2"
    },
    {
      "bufferView": 0,
      "componentType": 5125,
      "count": 7800,
      "type": "SCALAR"
    },
    {
      "bufferView": 2,
      "byteOffset": 37224,
      "componentType": 5126,
      "count": 4546,
      "max": [
        66.40528869628906,
        54.38557434082031,
        244.87380981445313
      ],
      "min": [
        -66.40528869628906,
        -99.7884521484375,
        -262.0281677246094
      ],
      "type": "VEC3"
    },
    {
      "bufferView": 2,
      "byteOffset": 91776,
      "componentType": 5126,
      "count": 4546,
      "max": [
        1.0,
        1.0,
        0.9999939203262329
      ],
      "min": [
        -1.0,
        -1.0,
        -0.9999990463256836
      ],
      "type": "VEC3"
    },
    {
      "bufferView": 3,
      "byteOffset": 24816,
      "componentType": 5126,
      "count": 4546,
      "max": [
        0.9999796748161316,
        0.9995985627174377,
        0.9999907612800598,
        1.0
      ],
      "min": [
        -0.9996169805526733,
        -0.9984890818595886,
        -0.9998008012771606,
        -1.0
      ],
      "type": "VEC4"
    },
    {
      "bufferView": 1,
      "byteOffset": 12408,
      "componentType": 5126,
      "count": 4546,
      "max": [
        0.9958765506744385,
        1.000125527381897
      ],
      "min": [
        0.013793372549116611,
        0.005585789680480957
      ],
      "type": "VEC2"
    },
    {
      "bufferView": 0,
      "byteOffset": 31200,
      "componentType": 5125,
      "count": 17796,
      "type": "SCALAR"
    },
    {
      "bufferView": 2,
      "byteOffset": 146328,
      "componentType": 5126,
      "count": 3602,
      "max": [
        433.2686462402344,
        118.49571228027344,
        145.9038848876953
      ],
      "min": [
        -433.2686462402344,
        -80.34898376464844,
        -311.8312072753906
      ],
      "type": "VEC3"
    },
    {
      "bufferView": 2,
      "byteOffset": 189552,
      "componentType": 5126,
      "count": 3602,
      "max": [
        1.0,
        0.9999282956123352,
        1.0
      ],
      "min": [
        -1.0,
        -0.9999989867210388,
        -1.0
      ],
      "type": "VEC3"
    },
    {
      "bufferView": 3,
      "byteOffset": 97552,
      "componentType": 5126,
      "count": 3602,
      "max": [
        1.0,
        0.9999750852584839,
        1.0,
        1.0
      ],
      "min": [
        -1.0,
        -0.9999986290931702,
        -1.0,
        -1.0
      ],
      "type": "VEC4"
    },
    {
      "bufferView": 1,
      "byteOffset": 48776,
      "componentType": 5126,
      "count": 3602,
      "max": [
        0.9974834322929382,
        0.9984456300735474
      ],
      "min": [
        0.005900561809539795,
        0.0
      ],
      "type": "VEC2"
    },
    {
      "bufferView": 0,
      "byteOffset": 102384,
      "componentType": 5125,
      "count": 14382,
      "type": "SCALAR"
    },
    {
      "bufferView": 4,
      "componentType": 5126,
      "count": 92,
      "max": [
        4.0
      ],
      "min": [
        0.0416666679084301
      ],
      "type": "SCALAR"
    },
    {
      "bufferView": 5,
      "componentType": 5126,
      "count": 92,
      "max": [
        7.105427357601002e-15,
        27.813613891601563,
        246.7927703857422
      ],
      "min": [
        -7.105427357601002e-15,
        27.813613891601563,
        246.7927703857422
      ],
      "type": "VEC3"
    },
    {
      "bufferView": 4,
      "byteOffset": 368,
      "componentType": 5126,
      "count": 120,
      "max": [
        4.0
      ],
      "min": [
        0.0416666679084301
      ],
      "type": "SCALAR"
    },
    {
      "bufferView": 6,
      "componentType": 5126,
      "count": 120,
      "max": [
        0.0,
        0.0,
        0.9996573328971863,
        1.0
      ],
      "min": [
        0.0,
        0.0,
        -0.8526401519775391,
        -0.48414576053619385
      ],
      "type": "VEC4"
    },
    {
      "bufferView": 4,
      "byteOffset": 848,
      "componentType": 5126,
      "count": 121,
      "max": [
        4.0
      ],
      "min": [
        0.0416666679084301
      ],
      "type": "SCALAR"
    },
    {
      "bufferView": 5,
      "byteOffset": 1104,
      "componentType": 5126,
      "count": 121,
      "max": [
        40.0,
        12.771690368652344,
        0.0
      ],
      "min": [
        -29.0,
        -14.525057792663574,
        -16.3682918548584
      ],
      "type": "VEC3"
    },
    {
      "bufferView": 4,
      "byteOffset": 1332,
      "componentType": 5126,
      "count": 121,
      "max": [
        4.0
      ],
      "min": [
        0.0416666679084301
      ],
      "type": "SCALAR"
    },
    {
      "bufferView": 6,
      "byteOffset": 1920,
      "componentType": 5126,
      "count": 121,
      "max": [
        0.0,
        0.0,
        0.061048541218042374,
        1.0
      ],
      "min": [
        0.0,
        0.0,
        -0.07456162571907043,
        0.9972164034843445
      ],
      "type": "VEC4"
    }
  ],
  "animations": [
    {
      "channels": [
        {
          "sampler": 0,
          "target": {
            "node": 5,
            "path": "translation"
          }
        },
        {
          "sampler": 1,
          "target": {
            "node": 5,
            "path": "rotation"
          }
        },
        {
          "sampler": 2,
          "target": {
            "node": 4,
            "path": "translation"
          }
        },
        {
          "sampler": 3,
          "target": {
            "node": 4,
            "path": "rotation"
          }
        }
      ],
      "name": "Take 001",
      "samplers": [
        {
          "input": 15,
          "interpolation": "LINEAR",
          "output": 16
        },
        {
          "input": 17,
          "interpolation": "LINEAR",
          "output": 18
        },
        {
          "input": 19,
          "interpolation": "LINEAR",
          "output": 20
        },
        {
          "input": 21,
          "interpolation": "LINEAR",
          "output": 22
        }
      ]
    }
  ],
  "asset": {
    "extras": {
      "author": "Icarus (https://sketchfab.com/Icarius)",
      "license": "CC-BY-NC-4.0 (http://creativecommons.org/licenses/by-nc/4.0/)",
      "source": "https://sketchfab.com/3d-models/biplane-trouble-in-paradise-asset-75d927c0c5824e77808b7e822a833bc0",
      "title": "Biplane 'Trouble in Paradise' Asset"
    },
    "generator": "Sketchfab-12.68.0",
    "version": "2.0"
  },
  "bufferViews": [
    {
      "buffer": 0,
      "byteLength": 159912,
      "name": "floatBufferViews",
      "target": 34963
    },
    {
      "buffer": 0,
      "byteLength": 77592,
      "byteOffset": 159912,
      "byteStride": 8,
      "name": "floatBufferViews",
      "target": 34962
    },
    {
      "buffer": 0,
      "byteLength": 232776,
      "byteOffset": 237504,
      "byteStride": 12,
      "name": "floatBufferViews",
      "target": 34962
    },
    {
      "buffer": 0,
      "byteLength": 155184,
      "byteOffset": 470280,
      "byteStride": 16,
      "name": "floatBufferViews",
      "target": 34962
    },
    {
      "buffer": 0,
      "byteLength": 1816,
      "byteOffset": 625464,
      "name": "floatBufferViews"
    },
    {
      "buffer": 0,
      "byteLength": 2556,
      "byteOffset": 627280,
      "byteStride": 12,
      "name": "floatBufferViews"
    },
    {
      "buffer": 0,
      "byteLength": 3856,
      "byteOffset": 629836,
      "byteStride": 16,
      "name": "floatBufferViews"
    }
  ],
  "buffers": [
    {
      "byteLength": 633692,
      "uri": "scene.bin"
    }
  ],
  "images": [
    {
      "uri": "textures/material_baseColor.png"
    },
    {
      "uri": "textures/material_metallicRoughness.png"
    },
    {
      "uri": "textures/material_normal.png"
    },
    {
      "uri": "textures/material_1_baseColor.png"
    },
    {
      "uri": "textures/material_1_metallicRoughness.png"
    },
    {
      "uri": "textures/material_1_normal.png"
    }
  ],
  "materials": [
    {
      "doubleSided": true,
      "name": "material",
      "normalTexture": {
        "index": 2
      },
      "occlusionTexture": {
        "index": 1
      },
      "pbrMetallicRoughness": {
        "baseColorTexture": {
          "index": 0
        },
        "metallicRoughnessTexture": {
          "index": 1
        }
      }
    },
    {
      "alphaMode": "BLEND",
      "doubleSided": true,
      "name": "material_1",
      "normalTexture": {
        "index": 5
      },
      "pbrMetallicRoughness": {
        "baseColorTexture": {
          "index": 3
        },
        "metallicRoughnessTexture": {
          "index": 4
        }
      }
    }
  ],
  "meshes": [
    {
      "name": "propeller_UV3_0",
      "primitives": [
        {
          "attributes": {
            "NORMAL": 1,
            "POSITION": 0,
            "TANGENT": 2,
            "TEXCOORD_0": 3
          },
          "indices": 4,
          "material": 0,
          "mode": 4
        }
      ]
    },
    {
      "name": "BiplaneHull_UV1_UV3_0",
      "primitives": [
        {
          "attributes": {
            "NORMAL": 6,
            "POSITION": 5,
            "TANGENT": 7,
            "TEXCOORD_0": 8
          },
          "indices": 9,
          "material": 0,
          "mode": 4
        }
      ]
    },
    {
      "name": "BiplaneWing_UV2_UV4_0",
      "primitives": [
        {
          "attributes": {
            "NORMAL": 11,
            "POSITION": 10,
            "TANGENT": 12,
            "TEXCOORD_0": 13
          },
          "indices": 14,
          "material": 1,
          "mode": 4
        }
      ]
    }
  ],
  "nodes": [
    {
      "children": [
        1
      ],
      "matrix": [
        1.0,
        0.0,
        0.0,
        0.0,
        0.0,
        2.220446049250313e-16,
        -1.0,
        0.0,
        0.0,
        1.0,
        2.220446049250313e-16,
        0.0,
        0.0,
        0.0,
        0.0,
        1.0
      ],
      "name": "Sketchfab_model"
    },
    {
      "children": [
        2
      ],
      "matrix": [
        1.0,
        0.0,
        0.0,
        0.0,
        0.0,
        0.0,
        1.0,
        0.0,
        0.0,
        -1.0,
        0.0,
        0.0,
        0.0,
        0.0,
        0.0,
        1.0
      ],
      "name": "Anim.fbx"
    },
    {
      "children": [
        3
      ],
      "name": "Object_2"
    },
    {
      "children": [
        4
      ],
      "name": "RootNode"
    },
    {
      "children": [
        5,
        7,
        9
      ],
      "name": "biplane_final",
      "rotation": [
        0.0,
        -0.0,
        -0.01420632004737854,
        0.9998990893363953
      ],
      "translation": [
        1.72017240524292,
        -2.372002601623535,
        -13.979966163635254
      ]
    },
    {
      "children": [
        6
      ],
      "name": "propeller",
      "rotation": [
        0.0,
        0.0,
        0.2588190734386444,
        0.965925931930542
      ],
      "translation": [
        0.0,
        27.813613891601563,
        246.7927703857422
      ]
    },
    {
      "mesh": 0,
      "name": "propeller_UV3_0"
    },
    {
      "children": [
        8
      ],
      "name": "BiplaneHull_UV1"
    },
    {
      "mesh": 1,
      "name": "BiplaneHull_UV1_UV3_0"
    },
    {
      "children": [
        10
      ],
      "name": "BiplaneWing_UV2"
    },
    {
      "mesh": 2,
      "name": "BiplaneWing_UV2_UV4_0"
    }
  ],
  "samplers": [
    {
      "magFilter": 9729,
      "minFilter": 9987,
      "wrapS": 10497,
      "wrapT": 10497
    }
  ],
  "scene": 0,
  "scenes": [
    {
      "name": "Sketchfab_Scene",
      "nodes": [
        0
      ]
    }
  ],
  "textures": [
    {
      "sampler": 0,
      "source": 0
    },
    {
      "sampler": 0,
      "source": 1
    },
    {
      "sampler": 0,
      "source": 2
    },
    {
      "sampler": 0,
      "source": 3
    },
    {
      "sampler": 0,
      "source": 4
    },
    {
      "sampler": 0,
      "source": 5
    }
  ]
}
